<svg xmlns="http://www.w3.org/2000/svg" width="72" height="35" fill="none"><path fill="currentColor" d="M67.828 24.465a.55.55 0 0 0-.312.11.35.35 0 0 0-.16.302.553.553 0 0 0 .167.41l1.913 2.016h.18l-1.22-2.413c-.139-.283-.328-.425-.568-.425Zm.38 4.79c.181-.388.516-.582 1.006-.582.61 0 .915.43.915 1.289v.96H67.91c.018-.723.117-1.278.298-1.666Zm3.002-.068c-.527-.47-1.174-.706-1.94-.706-.86 0-1.614.313-2.26.94-.647.625-.97 1.35-.97 2.172 0 .94.32 1.702.963 2.282.642.58 1.462.87 2.46.87.62 0 1.142-.148 1.567-.445.425-.297.72-.72.887-1.268l-.194-.069c-.102.43-.335.802-.7 1.117-.365.316-.816.473-1.352.473-.388 0-.71-.082-.963-.246a1.332 1.332 0 0 1-.54-.693 3.944 3.944 0 0 1-.209-.822 6.985 6.985 0 0 1-.048-.884v-.795H72c0-.813-.264-1.455-.791-1.926Zm-11.693-.39c-.3-.165-.69-.247-1.171-.247-.869 0-1.511.365-1.927 1.096h-.028v-.973h-2.578v.192h.915v5.496h-.915v.192h3.424v-.192h-.818v-3.618c0-.658.152-1.126.457-1.405.305-.279.615-.418.93-.418a.794.794 0 0 1 .602.26c.162.174.243.434.243.782v4.4h-.832v.191h3.34v-.192h-.817V30.25c0-.356.141-.666.423-.932.282-.264.58-.397.894-.397.61 0 .915.384.915 1.151v4.29h-.818v.192h3.424v-.192h-.915V30.51c0-1.307-.698-1.96-2.093-1.96-.85 0-1.479.365-1.886 1.096-.212-.402-.469-.685-.769-.85Zm-10.84 5.592c-.18-.1-.331-.241-.444-.412-.106-.164-.187-.388-.242-.671a5.858 5.858 0 0 1-.104-.788c-.014-.242-.021-.546-.021-.912 0-.365.01-.676.028-.932a6.05 6.05 0 0 1 .11-.788c.056-.27.137-.486.243-.65.11-.169.26-.308.437-.405.185-.105.411-.158.679-.158.314 0 .578.069.79.206.217.142.382.348.471.59.101.253.171.517.209.787.04.316.058.634.055.953 0 1.151-.056 1.91-.166 2.275-.213.713-.662 1.07-1.345 1.07a1.38 1.38 0 0 1-.7-.165Zm3.091-4.99c-.66-.611-1.458-.918-2.391-.918-.934 0-1.73.306-2.391.919-.661.612-.992 1.348-.992 2.207 0 .868.33 1.608.992 2.22.66.612 1.457.918 2.39.918.934 0 1.731-.306 2.392-.918.66-.612.991-1.352.991-2.22 0-.86-.33-1.595-.99-2.207Zm-10.112-.534h.928v5.496h-.928v.192h3.549v-.192h-.93v-5.688h-2.62v.192Zm1.774-4.112a1.001 1.001 0 0 0-.634.218.974.974 0 0 0-.255 1.223.99.99 0 0 0 .495.448 1.005 1.005 0 0 0 1.21-.358.975.975 0 0 0-.123-1.243.946.946 0 0 0-.693-.288Zm-7.028 9.17c-.287-.42-.43-1.17-.43-2.248 0-2.001.504-3.002 1.511-3.002.48 0 .814.22.998.658.185.439.277 1.234.278 2.385 0 1.088-.088 1.832-.264 2.234-.175.402-.471.603-.887.603-.518 0-.92-.21-1.206-.63Zm-3.036-9.06h.915v9.498h-.915v.192h2.579V33.54h.027c.324.804.869 1.206 1.636 1.206.869 0 1.59-.313 2.163-.939.572-.625.859-1.359.859-2.2 0-.822-.273-1.549-.818-2.179-.545-.63-1.28-.946-2.204-.946-.786 0-1.322.384-1.608 1.152h-.028V24.67h-2.606v.192Zm-3.396 8.155c0 .42-.088.761-.263 1.021-.176.26-.412.39-.707.39-.601 0-.902-.433-.901-1.301 0-.64.295-1.096.887-1.37a25.16 25.16 0 0 0 .596-.28 1.28 1.28 0 0 0 .235-.153c.074-.059.116-.116.125-.17h.028v1.863Zm-.832-4.537c-.675 0-1.24.137-1.698.411-.457.275-.686.631-.686 1.07 0 .466.268.699.804.699.564 0 .845-.188.846-.562l-.084-.768c0-.439.264-.658.79-.658.287 0 .502.085.645.254.143.169.215.395.215.678v.919c0 .256-.072.445-.215.568-.143.124-.395.25-.755.377-.148.055-.389.13-.721.226a9.392 9.392 0 0 0-.763.247 4.249 4.249 0 0 0-.582.288 1.158 1.158 0 0 0-.464.466 1.46 1.46 0 0 0-.146.678c0 .44.183.777.548 1.015.365.237.843.356 1.434.356.518 0 .9-.07 1.144-.212.245-.142.437-.386.576-.734h.027c.12.63.615.946 1.483.946.62 0 1.03-.137 1.234-.411l-.125-.123c-.157.173-.332.26-.526.26-.305 0-.458-.192-.458-.576v-3.509c0-1.27-.84-1.904-2.523-1.905Zm-7.264-3.618h.93v9.498h-.93v.192h3.55v-.192h-.93v-9.69h-2.62v.192Zm-4.366 0h.929v9.498h-.929v.192h3.549v-.192h-.929v-9.69h-2.62v.192Zm-5.053 9.526a1.275 1.275 0 0 1-.443-.412c-.107-.164-.188-.388-.243-.671a5.859 5.859 0 0 1-.104-.788c-.014-.242-.02-.546-.02-.912 0-.365.008-.676.027-.932.02-.264.057-.528.11-.788.056-.27.137-.486.243-.65.11-.169.26-.308.437-.405.185-.105.411-.158.68-.158.314 0 .577.069.79.206.216.142.381.348.47.59.102.253.172.517.209.787.04.316.058.634.055.953 0 1.151-.055 1.91-.166 2.275-.213.713-.661 1.07-1.345 1.07a1.38 1.38 0 0 1-.7-.165Zm3.091-4.99c-.66-.611-1.457-.918-2.39-.918-.934 0-1.731.306-2.392.919-.66.612-.991 1.348-.991 2.207 0 .868.33 1.608.991 2.22.66.612 1.458.918 2.391.918.934 0 1.73-.306 2.392-.918.66-.612.99-1.352.99-2.22 0-.86-.33-1.595-.99-2.207Zm-8.843-4.57c-.596-.17-1.102-.254-1.518-.254-.841 0-1.657.217-2.447.651a5.434 5.434 0 0 0-1.962 1.85A4.732 4.732 0 0 0 0 29.701c0 1.38.515 2.568 1.546 3.564 1.03.996 2.243 1.494 3.639 1.494.443 0 .972-.082 1.587-.247.614-.164.959-.246 1.033-.246.221 0 .374.095.457.287h.222v-2.905h-.222c-.222.886-.608 1.594-1.158 2.124-.55.53-1.19.795-1.92.795-1.118 0-1.885-.365-2.3-1.097-.416-.73-.624-1.978-.624-3.741 0-2.002.23-3.326.693-3.975.48-.658 1.229-.987 2.245-.987.74 0 1.352.221 1.837.665.485.443.88 1.163 1.185 2.158h.18v-2.796H8.18c-.028.12-.072.197-.132.233-.06.037-.16.055-.298.055-.102 0-.45-.084-1.046-.253ZM32.923 16.56c-.618-.244-.84-1.084-1.026-1.948.656-.05 1.316-.085 1.769.093.443.176.877.649 1.334 1.155-.728.495-1.465.94-2.077.7Zm-3.534-2.608c-.385-.485-.144-1.299.136-2.17.583.277 1.16.568 1.454.94.291.365.43.975.568 1.63-.884.063-1.763.093-2.158-.4Zm-1.733-3.994c-.089-.617.543-1.21 1.234-1.833.355.526.693 1.06.764 1.54.072.488-.106 1.105-.303 1.717-.808-.384-1.602-.794-1.695-1.424Zm.52-4.333c.24-.59 1.109-.805 1.985-.992.047.642.072 1.283-.113 1.74-.18.451-.634.892-1.105 1.32-.527-.766-1-1.49-.766-2.068Zm2.63-3.48c.501-.388 1.348-.157 2.193.112-.29.602-.568 1.163-.936 1.452-.376.293-1.006.442-1.638.576-.067-.91-.107-1.759.382-2.14ZM34.86.427c.65-.093 1.263.512 1.853 1.16-.564.388-1.098.747-1.57.814-.482.07-1.116-.118-1.742-.317.384-.797.8-1.564 1.459-1.657Zm4.364.512c.618.244.84 1.085 1.026 1.95-.655.047-1.317.083-1.77-.096-.442-.177-.877-.647-1.333-1.154.727-.494 1.465-.94 2.077-.7Zm3.533 2.609c.144.18.2.407.2.666 0 .434-.16.957-.336 1.503-.58-.277-1.157-.569-1.455-.941-.29-.366-.428-.975-.567-1.628.885-.063 1.763-.095 2.158.4ZM44.49 7.54c.093.618-.541 1.21-1.234 1.832-.356-.524-.692-1.058-.762-1.538-.072-.486.105-1.105.301-1.718.81.385 1.602.794 1.695 1.424Zm-.52 4.333c-.24.59-1.107.806-1.985.992-.045-.642-.071-1.283.114-1.74.181-.45.635-.89 1.106-1.319.525.767 1 1.488.766 2.067Zm-2.63 3.48c-.5.39-1.347.156-2.193-.11.29-.603.569-1.165.938-1.453.377-.293 1.005-.441 1.636-.578.067.912.11 1.76-.381 2.142Zm-9.502-1.023c-.148-.701-.294-1.36-.632-1.784-.342-.43-.968-.742-1.592-1.039.21-.656.407-1.322.325-1.883-.081-.552-.45-1.13-.834-1.692.507-.458 1.002-.935 1.21-1.453.128-.317.168-.695.168-1.095 0-.265-.017-.538-.038-.81.678-.144 1.36-.303 1.796-.643.428-.333.725-.94 1.035-1.586.669.212 1.352.419 1.91.338.546-.08 1.117-.467 1.721-.88.49.542.953 1.05 1.467 1.255.522.206 1.235.164 1.936.112.148.7.293 1.359.63 1.783.343.43.97.741 1.593 1.038-.212.656-.407 1.322-.325 1.883.081.554.45 1.13.833 1.694-.506.458-1 .932-1.21 1.451-.211.525-.18 1.22-.13 1.906-.677.145-1.36.303-1.794.642-.429.335-.725.94-1.036 1.588-.67-.213-1.353-.42-1.908-.34-.549.08-1.12.468-1.724.883-.49-.543-.953-1.053-1.466-1.257-.522-.206-1.236-.163-1.935-.111Zm5.448 2.742c-.65.092-1.261-.512-1.853-1.161.565-.386 1.098-.745 1.57-.814.483-.07 1.117.119 1.742.317-.383.798-.8 1.566-1.459 1.658Zm.042.283c.816-.117 1.273-.975 1.695-1.853.93.295 1.87.561 2.494.075.616-.479.56-1.461.488-2.425.966-.205 1.935-.436 2.234-1.172.295-.728-.265-1.561-.819-2.368.73-.658 1.472-1.336 1.356-2.113-.116-.785-1.004-1.235-1.892-1.657.296-.92.583-1.864.099-2.472-.492-.616-1.47-.575-2.442-.504-.204-.95-.446-1.89-1.21-2.191-.758-.298-1.577.205-2.378.75-.65-.715-1.327-1.396-2.135-1.28-.814.116-1.272.973-1.694 1.85-.93-.294-1.87-.56-2.494-.073-.616.478-.56 1.46-.49 2.425-.964.205-1.932.435-2.231 1.173a1.11 1.11 0 0 0-.082.426c0 .617.452 1.287.9 1.942-.68.611-1.368 1.244-1.368 1.952l.012.159c.116.787 1.003 1.236 1.892 1.658-.296.92-.584 1.863-.1 2.47.493.617 1.47.577 2.444.505.203.952.444 1.89 1.21 2.193.757.298 1.576-.205 2.377-.75.65.715 1.328 1.393 2.134 1.28Z"/><path fill="currentColor" d="M37.148 17.5c-.738 0-1.359-.581-1.975-1.251-.825.554-1.63 1.004-2.405.698-.78-.307-1.052-1.196-1.267-2.175-1.043.073-1.942.064-2.442-.563-.517-.649-.237-1.612.042-2.483-.798-.38-1.737-.86-1.862-1.708l-.012-.168c0-.757.686-1.407 1.326-1.983-.416-.609-.86-1.288-.86-1.92 0-.164.031-.325.093-.477.32-.793 1.348-1.042 2.213-1.228-.066-.91-.111-1.91.549-2.423.63-.494 1.507-.295 2.505.016.44-.902.915-1.702 1.746-1.82.826-.119 1.503.505 2.175 1.236.825-.555 1.63-1.004 2.406-.699.778.307 1.051 1.195 1.267 2.174 1.043-.07 1.942-.06 2.44.563.519.651.238 1.614-.042 2.484.798.38 1.737.86 1.862 1.707.123.82-.62 1.526-1.312 2.152.525.768 1.08 1.626.768 2.396-.324.796-1.35 1.044-2.216 1.229.067.909.114 1.91-.547 2.424-.634.493-1.51.293-2.507-.019-.44.904-.916 1.704-1.746 1.823-.066.01-.132.014-.2.014ZM35.215 15.9l.078.086c.646.71 1.285 1.34 2.016 1.238.733-.105 1.155-.868 1.593-1.78l.05-.103.111.035c.97.308 1.818.527 2.372.097.535-.416.517-1.257.438-2.312l-.009-.115.114-.024c1.013-.215 1.874-.445 2.138-1.092.272-.673-.3-1.508-.806-2.246l-.065-.094.085-.077c.699-.63 1.421-1.28 1.314-1.996-.102-.69-.884-1.114-1.818-1.558l-.104-.05.035-.108c.269-.835.574-1.781.12-2.35-.434-.545-1.31-.529-2.327-.455l-.116.008-.024-.112c-.211-.987-.442-1.826-1.129-2.096-.685-.27-1.456.194-2.252.736l-.097.065-.078-.086C36.207.801 35.566.172 34.837.275c-.733.105-1.172.9-1.593 1.777l-.05.104-.111-.035c-.97-.308-1.819-.527-2.37-.095-.577.447-.504 1.437-.44 2.311l.009.114-.113.025c-1.014.215-1.875.446-2.136 1.093a.983.983 0 0 0-.073.377c0 .585.466 1.267.878 1.868l.064.095-.085.076c-.62.558-1.325 1.191-1.325 1.855l.012.149c.1.682.882 1.105 1.816 1.55l.105.049-.035.109c-.269.836-.573 1.783-.122 2.349.437.548 1.313.53 2.329.455l.116-.009.024.113c.211.987.442 1.826 1.13 2.098.684.27 1.455-.195 2.252-.736l.096-.066Zm1.94 1.312c-.656 0-1.258-.597-1.82-1.214l-.102-.112.125-.085c.547-.374 1.113-.76 1.626-.835.501-.072 1.139.11 1.802.322l.145.046-.065.135c-.412.855-.84 1.631-1.561 1.733-.05.007-.1.01-.15.01Zm-1.52-1.28c.526.57 1.084 1.087 1.632 1.009.556-.078.933-.716 1.292-1.449-.58-.18-1.126-.325-1.536-.266-.416.06-.907.378-1.389.707Zm-2.35.825c-.14.001-.28-.025-.41-.076-.675-.265-.91-1.118-1.108-2.043l-.031-.147.151-.012c.694-.051 1.355-.083 1.828.103.486.193.942.7 1.384 1.19l.1.111-.124.085c-.597.405-1.22.79-1.79.79Zm-.313-.32c.517.203 1.18-.17 1.827-.602-.376-.415-.79-.853-1.183-1.009-.387-.152-.952-.137-1.556-.095.176.794.392 1.5.912 1.706Zm2.245-.566-.078-.087c-.455-.505-.926-1.027-1.416-1.221-.514-.204-1.269-.148-1.875-.103l-.117.009-.024-.113c-.136-.648-.278-1.318-.606-1.73-.315-.395-.886-.687-1.545-1.001l-.104-.05.035-.108c.213-.662.397-1.3.32-1.825-.077-.527-.444-1.098-.812-1.637l-.065-.095.085-.076c.486-.44.978-.91 1.177-1.404.108-.268.158-.6.158-1.047 0-.264-.018-.541-.037-.8l-.009-.115.114-.024c.687-.146 1.338-.303 1.74-.617.412-.32.71-.94.998-1.54l.05-.104.11.035c.581.184 1.303.413 1.85.334.522-.076 1.103-.474 1.666-.858l.096-.066.079.086c.455.505.926 1.026 1.416 1.221.515.203 1.27.147 1.877.102l.116-.008.024.113c.137.647.278 1.317.605 1.729.313.393.885.686 1.546 1l.104.05-.035.11c-.213.659-.397 1.295-.32 1.823.077.524.428 1.075.812 1.639l.064.094-.085.077c-.507.459-.979.912-1.177 1.403-.2.497-.17 1.158-.12 1.848l.008.113-.113.025c-.715.152-1.34.304-1.74.617-.414.322-.71.942-.998 1.54l-.05.105-.11-.036c-.711-.226-1.341-.408-1.849-.334-.523.076-1.079.456-1.668.86l-.096.066Zm-2.484-1.716c.409 0 .777.04 1.089.163.518.205.986.704 1.438 1.204.557-.381 1.13-.758 1.684-.838.535-.077 1.159.09 1.857.31.285-.593.586-1.19 1.023-1.531.422-.33 1.035-.491 1.736-.644-.047-.68-.062-1.33.147-1.85.207-.513.662-.968 1.16-1.423-.376-.558-.71-1.106-.79-1.654-.082-.553.087-1.182.294-1.833-.647-.311-1.205-.61-1.535-1.026-.346-.434-.497-1.083-.633-1.725-.731.052-1.377.07-1.879-.129-.518-.206-.986-.704-1.438-1.203-.557.38-1.13.756-1.682.836-.57.083-1.272-.123-1.858-.308-.285.593-.587 1.19-1.023 1.53-.424.33-1.06.497-1.737.643.017.23.03.472.03.706 0 .481-.056.845-.176 1.144-.208.516-.68.986-1.16 1.424.363.538.71 1.104.79 1.653.081.55-.087 1.18-.294 1.833.645.31 1.202.609 1.534 1.026.347.435.498 1.084.634 1.726.276-.02.54-.034.789-.034Zm7.906 1.534c-.454 0-.984-.149-1.532-.321l-.145-.046.065-.136c.32-.669.596-1.204.975-1.5.392-.305 1.023-.46 1.69-.603l.151-.033.011.152c.062.85.133 1.815-.432 2.254-.216.167-.483.233-.783.233Zm-1.306-.527c.786.241 1.511.408 1.924.087.398-.309.402-.999.342-1.876-.579.128-1.112.271-1.432.52-.31.242-.556.696-.834 1.27Zm-8.556-.646c-.637 0-1.184-.1-1.492-.484-.444-.558-.148-1.48.113-2.292l.046-.144.139.066c.614.292 1.19.586 1.5.978.3.374.44.959.594 1.684l.031.147-.152.01c-.267.02-.53.035-.78.035Zm-1.283-.647c.327.409 1.07.414 1.89.36-.134-.621-.265-1.12-.51-1.426-.253-.32-.737-.582-1.268-.838-.265.84-.425 1.51-.112 1.904Zm12.369-.844-.01-.152c-.046-.644-.074-1.314.122-1.798.193-.48.669-.939 1.14-1.367l.113-.103.087.126c.49.716 1.047 1.528.78 2.19h-.001c-.26.637-1.096.862-2.08 1.072l-.151.032Zm1.318-3.02c-.409.378-.8.775-.958 1.168-.162.397-.152.965-.115 1.53.816-.179 1.54-.393 1.74-.88.2-.499-.238-1.188-.667-1.817Zm-13.75 1.56-.138-.065c-.909-.432-1.669-.845-1.769-1.524-.102-.707.63-1.367 1.276-1.949l.115-.103.086.127c.355.526.709 1.083.785 1.593.076.52-.11 1.163-.309 1.777l-.046.144ZM27.788 9.94c.076.518.73.895 1.482 1.258.17-.54.314-1.088.252-1.514-.062-.417-.35-.894-.657-1.357-.565.512-1.153 1.08-1.077 1.613Zm15.443-.367-.086-.127c-.355-.522-.708-1.075-.783-1.592-.077-.518.11-1.162.306-1.776l.047-.145.138.066c.875.415 1.668.844 1.77 1.523.104.706-.63 1.366-1.278 1.948l-.114.103Zm-.355-3.27c-.17.54-.314 1.088-.25 1.513.06.422.358.913.655 1.357.567-.512 1.157-1.081 1.078-1.613-.077-.519-.732-.895-1.483-1.258ZM28.92 7.893l-.086-.127c-.492-.716-1.05-1.527-.78-2.19.257-.636 1.094-.862 2.08-1.072l.15-.032.01.15c.047.642.076 1.31-.121 1.8-.194.481-.669.94-1.139 1.367l-.114.104Zm1.12-3.1c-.817.18-1.543.395-1.739.88-.19.468.162 1.076.666 1.819.409-.377.8-.774.959-1.168.161-.402.15-.968.114-1.53ZM42.7 5.903l-.138-.066c-.613-.293-1.19-.589-1.501-.978-.298-.376-.44-.96-.593-1.683l-.032-.147.152-.011c.954-.069 1.845-.086 2.273.45.154.193.228.437.228.747 0 .447-.155.963-.342 1.544l-.047.144Zm-1.94-2.633c.135.62.267 1.12.51 1.426.254.318.738.58 1.27.837.159-.5.283-.945.283-1.318 0-.248-.056-.44-.172-.585-.326-.408-1.071-.414-1.891-.36ZM30.303 4.446l-.01-.151c-.063-.85-.134-1.813.431-2.253.546-.423 1.407-.2 2.316.09l.145.045-.066.136c-.266.553-.567 1.18-.974 1.5-.396.308-1.026.46-1.692.6l-.15.033Zm.586-2.197c-.398.31-.401 1-.342 1.875.578-.125 1.11-.267 1.433-.518.327-.257.595-.779.833-1.27-.783-.243-1.507-.41-1.924-.087Zm8.521.81c-.373 0-.704-.035-.979-.144-.454-.18-.878-.626-1.384-1.189l-.1-.111.124-.085c.746-.506 1.53-.978 2.202-.714.673.266.907 1.12 1.107 2.045l.032.147-.152.011c-.3.022-.585.04-.85.04Zm-2.063-1.396c.438.483.811.86 1.184 1.008.382.151.949.138 1.556.097-.177-.795-.394-1.502-.913-1.707-.516-.203-1.18.17-1.827.602Zm-2.428.885c-.45 0-.977-.154-1.559-.338l-.145-.046.066-.136c.412-.854.84-1.63 1.56-1.731.717-.102 1.367.538 1.97 1.203l.102.11-.124.086c-.546.374-1.11.761-1.627.835-.08.012-.162.017-.243.017Zm-1.332-.543c.58.18 1.128.326 1.536.266.418-.06.926-.39 1.39-.706C35.985.995 35.43.479 34.878.557c-.555.079-.933.716-1.292 1.448Z"/></svg>