<svg xmlns="http://www.w3.org/2000/svg" width="30" height="30" fill="currentColor" viewBox="0 0 30 30">
    <path
        d="M10.843 24.97c-.816-.311-1.11-1.385-1.354-2.487.864-.063 1.736-.108 2.333.119.585.225 1.158.827 1.76 1.474-.96.631-1.932 1.2-2.74.893Zm-4.664-3.33c-.509-.619-.191-1.657.179-2.77.77.354 1.53.726 1.919 1.201.384.466.566 1.244.749 2.08-1.167.08-2.326.12-2.847-.511Zm-2.288-5.098c-.117-.788.717-1.544 1.629-2.339.469.672.914 1.352 1.008 1.965.095.623-.14 1.411-.4 2.192-1.066-.49-2.114-1.013-2.237-1.818Zm.687-5.53c.316-.755 1.463-1.028 2.62-1.266.06.818.094 1.637-.15 2.221-.238.575-.837 1.138-1.458 1.685-.695-.979-1.32-1.903-1.012-2.64ZM8.05 6.57c.66-.496 1.779-.2 2.894.142-.383.769-.75 1.485-1.236 1.854-.496.374-1.327.565-2.161.736-.088-1.162-.142-2.246.503-2.732Zm5.35-2.193c.858-.119 1.666.653 2.445 1.481-.745.495-1.449.952-2.072 1.039-.637.09-1.473-.151-2.3-.405.508-1.018 1.057-1.996 1.926-2.115Zm5.758.653c.816.312 1.108 1.385 1.354 2.488-.864.061-1.737.107-2.334-.12-.585-.227-1.159-.827-1.761-1.475.96-.63 1.934-1.2 2.741-.893Zm4.663 3.33c.19.231.264.52.264.85 0 .555-.21 1.222-.444 1.92-.766-.355-1.527-.727-1.92-1.202-.381-.467-.565-1.244-.748-2.078 1.168-.081 2.326-.12 2.848.51Zm2.288 5.096c.12.789-.716 1.544-1.63 2.338-.47-.668-.913-1.35-1.006-1.963-.095-.62.14-1.41.399-2.192 1.067.49 2.113 1.013 2.237 1.817Zm-.686 5.531c-.318.754-1.462 1.028-2.62 1.266-.06-.82-.095-1.638.15-2.221.238-.576.837-1.137 1.458-1.683.694.978 1.32 1.899 1.012 2.638Zm-3.473 4.442c-.66.497-1.777.199-2.893-.14.382-.77.75-1.487 1.237-1.855.498-.374 1.328-.564 2.16-.738.088 1.165.144 2.247-.504 2.733ZM9.41 22.123c-.194-.895-.387-1.736-.833-2.277-.451-.549-1.278-.947-2.1-1.326.278-.837.537-1.688.428-2.404-.107-.705-.593-1.441-1.1-2.16.67-.585 1.322-1.193 1.598-1.854.168-.404.22-.887.22-1.398 0-.338-.023-.686-.05-1.035.894-.183 1.795-.386 2.37-.82.565-.425.957-1.2 1.367-2.025.882.271 1.783.536 2.519.432.721-.1 1.475-.595 2.272-1.123.646.691 1.258 1.342 1.935 1.602.69.264 1.63.209 2.555.143.195.894.388 1.734.833 2.276.451.55 1.279.946 2.101 1.325-.279.838-.537 1.687-.428 2.404.107.706.593 1.441 1.1 2.161-.67.585-1.322 1.19-1.599 1.853-.278.67-.237 1.556-.17 2.433-.895.184-1.796.387-2.369.82-.565.426-.957 1.2-1.366 2.026-.884-.272-1.786-.535-2.518-.433-.724.101-1.478.597-2.276 1.126-.645-.693-1.257-1.344-1.934-1.604-.689-.263-1.63-.208-2.554-.142Zm7.19 3.5c-.856.118-1.664-.654-2.444-1.482.745-.493 1.449-.951 2.072-1.039.636-.088 1.474.151 2.299.405-.507 1.018-1.056 1.998-1.926 2.116Zm.057.361c1.076-.149 1.679-1.244 2.236-2.365 1.227.377 2.467.717 3.292.096.812-.611.74-1.865.644-3.096 1.274-.26 2.553-.557 2.948-1.496.389-.929-.35-1.992-1.081-3.023.963-.84 1.943-1.705 1.789-2.697-.153-1.002-1.324-1.576-2.497-2.115.391-1.174.77-2.378.13-3.154-.649-.787-1.94-.734-3.222-.645-.269-1.211-.588-2.412-1.597-2.796-1-.38-2.08.262-3.137.957-.859-.912-1.752-1.78-2.817-1.634-1.076.149-1.68 1.242-2.237 2.363-1.227-.376-2.468-.715-3.291-.094-.812.61-.74 1.865-.645 3.095-1.274.262-2.552.556-2.946 1.498-.072.173-.11.357-.108.544 0 .787.597 1.642 1.188 2.478-.897.78-1.805 1.588-1.805 2.492l.016.202c.152 1.005 1.323 1.578 2.496 2.117-.39 1.174-.77 2.379-.131 3.154.65.787 1.94.736 3.224.643.269 1.215.587 2.414 1.597 2.8 1 .38 2.08-.262 3.137-.957.858.912 1.752 1.778 2.817 1.633Z" />
</svg>