<svg xmlns="http://www.w3.org/2000/svg"  fill="currentColor" viewBox="0 0 57 28">
    <g clip-path="url(#a)">
        <path
            d="M53.697 19.708a.43.43 0 0 0-.247.088.28.28 0 0 0-.126.243.45.45 0 0 0 .131.332l1.515 1.623h.142l-.965-1.944c-.11-.228-.26-.342-.45-.342Zm.302 3.859c.142-.313.407-.47.795-.47.483 0 .725.347.725 1.039v.773h-1.756c.014-.582.093-1.03.236-1.342Zm2.376-.055c-.417-.38-.93-.569-1.537-.569-.68 0-1.277.252-1.789.756-.512.505-.768 1.088-.768 1.75 0 .759.254 1.371.763 1.839.508.467 1.158.701 1.948.7.49 0 .903-.119 1.24-.358.336-.239.57-.58.702-1.021l-.153-.055a1.695 1.695 0 0 1-.555.9c-.289.253-.645.38-1.07.38-.307 0-.561-.066-.762-.198a1.071 1.071 0 0 1-.428-.558 3.222 3.222 0 0 1-.165-.662 5.746 5.746 0 0 1-.038-.713v-.64H57c0-.655-.208-1.172-.625-1.551Zm-9.257-.315c-.238-.133-.547-.199-.928-.199-.687 0-1.196.295-1.525.884h-.022v-.784h-2.041v.154h.724v4.428h-.724v.154h2.71v-.154h-.647v-2.915c0-.53.12-.907.362-1.132.242-.224.487-.336.735-.336a.62.62 0 0 1 .478.21c.128.14.192.349.192.629v3.544h-.659v.154h2.645v-.154h-.647v-3.313c0-.287.111-.537.334-.75.224-.214.46-.32.708-.32.483 0 .725.309.725.927v3.456h-.648v.154h2.71v-.154h-.724v-3.103c0-1.052-.552-1.579-1.657-1.579-.673 0-1.17.295-1.492.884-.168-.324-.372-.552-.61-.685Zm-8.582 4.505a1.015 1.015 0 0 1-.351-.331 1.562 1.562 0 0 1-.192-.541 4.778 4.778 0 0 1-.083-.635 14.633 14.633 0 0 1 .006-1.485c.015-.214.045-.426.088-.635.043-.217.107-.392.192-.525a.982.982 0 0 1 .345-.325c.147-.085.326-.127.538-.127.249 0 .457.055.626.165.17.115.302.281.373.475.08.204.135.418.164.635.032.255.046.51.044.767 0 .928-.044 1.539-.131 1.833-.169.574-.524.861-1.065.861-.22 0-.404-.044-.554-.132Zm2.447-4.02c-.523-.492-1.154-.739-1.893-.739-.74 0-1.37.247-1.893.74-.523.493-.785 1.086-.785 1.778 0 .699.262 1.295.785 1.788.523.493 1.154.74 1.893.74.739 0 1.37-.247 1.893-.74.523-.493.785-1.09.785-1.788 0-.692-.262-1.285-.785-1.778Zm-8.005-.43h.735v4.428h-.736v.154h2.81v-.154h-.736v-4.582h-2.074v.154Zm1.404-3.312a.784.784 0 0 0-.778.631.796.796 0 0 0 .466.89.782.782 0 0 0 .958-.288.796.796 0 0 0-.348-1.174.745.745 0 0 0-.298-.06Zm-5.564 7.386c-.227-.338-.34-.942-.34-1.81 0-1.612.399-2.418 1.196-2.418.38 0 .644.176.79.53.147.353.22.993.22 1.92 0 .877-.07 1.477-.209 1.8-.139.325-.373.486-.702.486-.41 0-.728-.169-.955-.508Zm-2.403-7.298h.724v7.652h-.724v.154h2.041v-.817h.022c.256.648.688.972 1.295.972.688 0 1.258-.252 1.712-.756.454-.505.68-1.095.68-1.772a2.63 2.63 0 0 0-.647-1.756c-.432-.508-1.013-.762-1.745-.762-.622 0-1.046.31-1.273.928h-.022v-3.997h-2.063v.154Zm-2.689 6.57c0 .338-.07.613-.208.822-.14.21-.326.315-.56.315-.476 0-.713-.35-.713-1.049 0-.515.234-.883.702-1.104a20.223 20.223 0 0 0 .472-.226c.066-.034.129-.075.186-.122.059-.048.092-.094.1-.138h.021v1.502Zm-.658-3.655c-.534 0-.983.11-1.345.331-.362.221-.543.508-.543.862 0 .375.212.563.637.563.446 0 .669-.151.67-.453l-.067-.618c0-.354.209-.53.626-.53.227 0 .397.068.51.204.113.136.17.318.17.547v.74c0 .206-.056.358-.17.457-.113.1-.313.201-.598.304a9.031 9.031 0 0 1-.57.182 7.35 7.35 0 0 0-.604.2c-.16.064-.314.142-.461.23a.925.925 0 0 0-.368.376 1.193 1.193 0 0 0-.115.547c0 .353.145.625.433.817.29.191.668.287 1.136.287.41 0 .712-.057.906-.171.193-.114.345-.311.455-.59h.022c.095.507.486.76 1.174.76.49 0 .816-.11.977-.33l-.099-.1c-.124.14-.263.21-.417.21-.241 0-.362-.154-.362-.464v-2.826c0-1.023-.666-1.535-1.997-1.535Zm-5.75-2.915h.735v7.652h-.736v.154h2.81v-.154h-.735v-7.806h-2.075v.154Zm-3.457 0h.735v7.652h-.735v.154h2.809v-.154h-.735v-7.806H13.86v.154Zm-4 7.674a1.017 1.017 0 0 1-.352-.331 1.561 1.561 0 0 1-.192-.541 4.8 4.8 0 0 1-.082-.635c-.011-.195-.017-.44-.017-.734 0-.295.008-.545.022-.751a5 5 0 0 1 .088-.635c.044-.217.108-.392.192-.525a.985.985 0 0 1 .884-.452c.248 0 .457.055.625.165a.978.978 0 0 1 .373.475c.08.204.136.418.165.635.031.255.046.51.044.767 0 .928-.044 1.539-.132 1.833-.168.574-.523.861-1.064.861a1.08 1.08 0 0 1-.555-.132Zm2.447-4.02a2.668 2.668 0 0 0-1.893-.739c-.74 0-1.37.247-1.894.74-.523.493-.784 1.086-.784 1.778 0 .699.261 1.295.784 1.788.524.493 1.155.74 1.894.74.738 0 1.37-.247 1.893-.74.523-.493.784-1.09.784-1.788 0-.692-.261-1.285-.784-1.778Zm-7.002-3.681c-.472-.136-.872-.204-1.202-.205-.665 0-1.311.175-1.936.525a4.335 4.335 0 0 0-1.553 1.49A3.861 3.861 0 0 0 0 23.926c0 1.111.408 2.068 1.224 2.87C2.039 27.6 3 28 4.104 28c.352 0 .77-.066 1.257-.199.487-.132.76-.198.818-.198.175 0 .296.077.362.231h.175v-2.34h-.175c-.176.714-.481 1.284-.917 1.711-.435.427-.942.64-1.52.64-.885 0-1.492-.294-1.821-.883-.33-.589-.494-1.593-.494-3.014 0-1.612.183-2.68.549-3.202.38-.53.973-.795 1.777-.795.586 0 1.07.178 1.455.535.384.358.696.937.938 1.74h.143v-2.253h-.176c-.022.096-.057.158-.104.188a.468.468 0 0 1-.236.044c-.08 0-.357-.068-.829-.204Zm24.102-5.904c-.584 0-1.076-.468-1.563-1.008-.653.447-1.29.809-1.905.563-.617-.248-.833-.963-1.003-1.753-.826.06-1.537.052-1.933-.453-.41-.522-.187-1.299.033-2-.631-.307-1.375-.693-1.473-1.376l-.01-.135c0-.61.543-1.134 1.05-1.597-.33-.491-.68-1.038-.68-1.548a1.006 1.006 0 0 1 .072-.383c.254-.64 1.067-.84 1.753-.99-.053-.733-.089-1.54.434-1.952.5-.397 1.193-.238 1.983.013.348-.726.724-1.37 1.383-1.466.653-.095 1.19.407 1.721.996.653-.447 1.29-.81 1.905-.563.616.247.832.962 1.003 1.751.826-.057 1.538-.05 1.932.453.41.525.188 1.3-.033 2.001.631.306 1.374.693 1.474 1.375.097.66-.491 1.23-1.04 1.734.416.619.856 1.31.609 1.93-.257.641-1.07.841-1.755.99.053.732.09 1.538-.433 1.953-.502.397-1.195.236-1.985-.015-.348.727-.724 1.373-1.381 1.468a1.113 1.113 0 0 1-.158.012Zm-1.53-1.288.061.07c.512.572 1.018 1.079 1.597.996.58-.084.914-.698 1.26-1.433l.04-.084.088.029c.768.248 1.44.425 1.878.078.423-.335.409-1.012.346-1.863l-.007-.092.09-.02c.803-.172 1.484-.358 1.693-.88.216-.54-.238-1.214-.638-1.808l-.051-.076.067-.062c.553-.507 1.125-1.032 1.04-1.608-.08-.556-.7-.897-1.44-1.255l-.082-.04.028-.088c.213-.672.455-1.434.096-1.893-.344-.438-1.038-.425-1.843-.366l-.091.007-.02-.09c-.167-.796-.35-1.471-.893-1.689-.543-.217-1.153.156-1.784.593l-.076.053-.062-.07c-.512-.573-1.02-1.08-1.596-.997-.58.085-.928.726-1.262 1.432l-.04.084-.087-.029c-.769-.247-1.44-.424-1.877-.076-.456.36-.398 1.158-.348 1.862l.007.092-.09.02c-.802.173-1.484.36-1.69.88a.805.805 0 0 0-.058.304c0 .471.37 1.02.695 1.505l.051.076-.068.062c-.491.45-1.048.959-1.048 1.494l.009.12c.08.549.698.89 1.438 1.248l.083.04-.028.087c-.213.674-.454 1.437-.096 1.893.346.441 1.04.427 1.843.366l.092-.007.02.09c.166.796.35 1.473.893 1.69.542.218 1.153-.156 1.783-.592l.077-.053Zm1.535 1.057c-.52 0-.995-.48-1.44-.978l-.081-.09.099-.068c.433-.302.88-.613 1.287-.673.397-.058.902.09 1.427.259l.114.037-.051.11c-.326.688-.665 1.313-1.236 1.395a.845.845 0 0 1-.12.008Zm-1.204-1.03c.418.459.86.874 1.293.812.44-.063.74-.577 1.023-1.167-.459-.146-.891-.262-1.216-.214-.33.048-.718.304-1.1.568Zm-1.859.664a.87.87 0 0 1-.326-.062c-.534-.214-.719-.9-.876-1.646l-.025-.118.12-.01c.55-.041 1.073-.066 1.447.083.385.156.746.564 1.096.959l.08.09-.1.068c-.472.326-.965.636-1.416.636Zm-.248-.259c.41.164.934-.136 1.447-.484-.298-.335-.627-.687-.938-.813-.306-.122-.753-.11-1.231-.077.14.64.31 1.21.722 1.374Zm1.778-.455-.062-.07c-.36-.407-.733-.828-1.121-.984-.407-.164-1.005-.119-1.485-.083l-.093.007-.018-.09c-.109-.523-.22-1.063-.48-1.394-.25-.319-.702-.554-1.223-.807l-.082-.04.027-.087c.168-.534.314-1.047.253-1.47-.06-.424-.35-.884-.643-1.319l-.05-.076.066-.062c.385-.354.775-.733.932-1.13.085-.216.125-.484.125-.844a9 9 0 0 0-.03-.645L23.99 3.6l.09-.02c.544-.117 1.059-.243 1.378-.496.326-.259.562-.758.79-1.24l.04-.085.087.029c.46.148 1.03.332 1.464.268.413-.06.873-.381 1.318-.69l.077-.054.062.07c.36.406.734.826 1.122.983.407.164 1.005.119 1.485.083l.092-.007.019.09c.108.522.22 1.062.48 1.393.247.317.7.553 1.223.807l.082.04-.028.088c-.168.53-.314 1.043-.253 1.469.061.422.339.865.643 1.32l.05.076-.066.061c-.402.37-.775.735-.932 1.131-.158.4-.135.932-.096 1.488l.007.092-.09.02c-.566.123-1.06.245-1.377.496-.327.26-.563.76-.79 1.242l-.04.084-.087-.029c-.563-.182-1.061-.329-1.463-.27-.415.062-.855.369-1.32.693l-.077.054Zm-1.968-1.383c.325 0 .616.032.863.132.41.165.78.567 1.138.97.441-.307.895-.61 1.333-.675.424-.063.918.072 1.47.249.226-.478.465-.958.81-1.233.334-.266.82-.396 1.375-.518-.037-.548-.05-1.072.116-1.49.164-.415.524-.78.919-1.147-.298-.45-.563-.891-.627-1.333-.064-.445.07-.952.234-1.476-.512-.25-.954-.492-1.216-.827-.273-.35-.393-.872-.5-1.39-.58.043-1.09.057-1.488-.103-.41-.166-.78-.567-1.138-.97-.441.307-.895.61-1.332.674-.452.067-1.007-.1-1.47-.248-.227.478-.466.96-.811 1.232-.335.266-.838.4-1.375.518.013.186.024.38.024.57 0 .387-.045.68-.14.92-.165.416-.538.795-.919 1.148.288.433.563.889.627 1.332.064.442-.07.95-.233 1.476.51.25.951.49 1.214.827.275.35.394.873.502 1.39.219-.016.428-.028.624-.028Zm6.26 1.236c-.36 0-.78-.12-1.213-.259l-.115-.037.051-.11c.254-.538.472-.969.772-1.208.31-.245.81-.37 1.339-.485l.119-.026.009.122c.049.685.105 1.462-.343 1.816-.17.134-.382.187-.62.187Zm-1.034-.424c.622.194 1.196.328 1.523.07.315-.25.318-.805.27-1.512-.458.104-.88.219-1.133.419-.245.195-.44.561-.66 1.023Zm-6.774-.52c-.505 0-.938-.08-1.181-.39-.352-.45-.117-1.192.09-1.847l.036-.116.11.053c.486.235.942.472 1.188.788.237.302.348.772.47 1.356l.024.119-.12.009c-.212.015-.42.027-.617.027Zm-1.016-.522c.26.33.848.334 1.497.29-.106-.5-.21-.902-.404-1.149-.2-.258-.584-.468-1.004-.675-.21.676-.336 1.217-.089 1.534Zm9.793-.68-.009-.122c-.036-.519-.058-1.058.098-1.449.152-.386.529-.756.901-1.1l.09-.084.069.102c.389.577.829 1.23.617 1.764-.205.513-.868.695-1.648.863l-.118.026Zm1.043-2.432c-.323.304-.634.623-.759.94-.127.32-.12.778-.09 1.233.645-.144 1.22-.317 1.376-.71.16-.401-.187-.956-.527-1.463ZM23.3 9.317l-.11-.052c-.719-.349-1.32-.681-1.4-1.228-.08-.57.499-1.101 1.01-1.57l.09-.083.069.103c.281.423.561.872.621 1.283.06.418-.087.936-.244 1.431l-.036.116Zm-1.302-1.31c.061.417.58.72 1.174 1.013.134-.435.25-.877.2-1.22-.05-.336-.277-.72-.52-1.093-.448.413-.914.87-.854 1.3Zm12.227-.296-.068-.102c-.281-.42-.56-.867-.62-1.283-.061-.417.086-.936.242-1.431l.037-.116.11.053c.692.334 1.32.68 1.4 1.226.083.57-.498 1.101-1.01 1.57l-.091.083Zm-.281-2.635c-.134.435-.249.877-.199 1.22.049.34.284.735.519 1.092.449-.412.916-.87.853-1.299-.06-.418-.579-.72-1.173-1.013Zm-11.05 1.283-.068-.102c-.39-.577-.83-1.23-.617-1.765.203-.512.866-.694 1.646-.863l.119-.026.009.122c.037.517.06 1.054-.097 1.448-.153.389-.53.758-.902 1.103l-.09.083Zm.887-2.497c-.647.145-1.222.318-1.377.709-.15.377.129.867.528 1.465.323-.304.633-.623.758-.94.128-.325.12-.78.09-1.234Zm10.024.892-.11-.053c-.485-.236-.941-.474-1.188-.788-.235-.303-.347-.772-.47-1.355l-.024-.119.12-.009c.755-.055 1.46-.069 1.799.362.122.156.181.353.181.602 0 .36-.123.777-.271 1.244l-.037.116Zm-1.536-2.12c.107.5.212.9.404 1.148.201.256.584.467 1.005.675.126-.403.224-.762.224-1.063 0-.2-.044-.353-.136-.47-.258-.33-.848-.334-1.497-.29Zm-8.279.947-.009-.121c-.049-.685-.105-1.46.342-1.815.432-.34 1.114-.16 1.834.072l.114.037-.052.11c-.21.445-.449.95-.77 1.207-.314.248-.813.371-1.34.485l-.119.025Zm.464-1.77c-.315.25-.318.806-.27 1.511.456-.1.878-.215 1.134-.417.259-.207.471-.628.659-1.023-.62-.196-1.193-.331-1.523-.07Zm6.746.653c-.296 0-.558-.028-.775-.115-.36-.147-.695-.505-1.096-.959l-.08-.09.1-.067c.59-.408 1.21-.788 1.742-.576.532.215.718.902.877 1.648l.025.118-.12.01a9.277 9.277 0 0 1-.673.031ZM29.565 1.34c.347.389.643.692.938.812.302.122.75.11 1.232.078-.14-.64-.312-1.21-.723-1.376-.409-.163-.934.138-1.447.486Zm-1.922.713c-.356 0-.773-.124-1.234-.273l-.114-.037.051-.11c.326-.688.666-1.312 1.235-1.394.568-.082 1.082.434 1.56.97l.08.088-.098.07c-.431.3-.878.613-1.288.672-.063.01-.128.014-.192.014Zm-1.054-.438c.46.146.893.263 1.216.214.33-.048.733-.313 1.1-.568-.417-.46-.858-.875-1.293-.812-.44.063-.739.577-1.023 1.166Z" />
    </g>
    <defs>
        <clipPath id="a">
            <path d="M0 0h57v28H0z" />
        </clipPath>
    </defs>
</svg>