<svg width="72" height="35" viewBox="0 0 72 35" fill="none" xmlns="http://www.w3.org/2000/svg">
    <path
        d="M67.8276 24.4653C67.7146 24.4691 67.6057 24.5074 67.5157 24.575C67.4652 24.6076 67.4241 24.6524 67.3961 24.7052C67.3682 24.7581 67.3545 24.8171 67.3562 24.8766C67.3541 24.9528 67.3678 25.0285 67.3964 25.0993C67.425 25.17 67.468 25.2341 67.5226 25.2878L69.4356 27.3026H69.6158L68.396 24.8902C68.2573 24.6071 68.0678 24.4655 67.8276 24.4653ZM68.2087 29.2558C68.389 28.8674 68.7241 28.6732 69.2138 28.6732C69.8237 28.6732 70.1287 29.1027 70.1288 29.9616V30.9211H67.9107C67.9292 30.1993 68.0285 29.6443 68.2087 29.2558ZM71.21 29.1872C70.6831 28.7167 70.0362 28.4815 69.2692 28.4814C68.4097 28.4814 67.6565 28.7943 67.0096 29.4202C66.3627 30.0462 66.0392 30.7703 66.0393 31.5927C66.0393 32.5339 66.3604 33.2946 67.0027 33.8748C67.6449 34.4551 68.4651 34.7453 69.4634 34.7451C70.0824 34.7451 70.6045 34.5966 71.0297 34.2996C71.4547 34.0029 71.7505 33.5803 71.9169 33.0318L71.7229 32.9633C71.621 33.3929 71.3876 33.7653 71.0228 34.0805C70.6576 34.3957 70.2071 34.5533 69.6713 34.5533C69.283 34.5533 68.9619 34.471 68.7079 34.3065C68.4539 34.1426 68.2634 33.8988 68.1672 33.6144C68.0685 33.3484 67.9988 33.0727 67.9593 32.7921C67.9244 32.4987 67.9082 32.2034 67.9107 31.908V31.1129H72.0001C72.0001 30.2998 71.7367 29.6579 71.21 29.1872ZM59.5171 28.7966C59.2168 28.6321 58.8263 28.5498 58.3458 28.5499C57.477 28.5499 56.8347 28.9154 56.4189 29.6464H56.3912V28.6732H53.8128V28.8651H54.7278V34.3614H53.8128V34.5533H57.2367V34.3614H56.4189V30.743C56.4189 30.085 56.5714 29.6167 56.8764 29.338C57.1814 29.0594 57.4909 28.9201 57.8051 28.92C57.9187 28.9178 58.0314 28.9399 58.1355 28.9849C58.2396 29.0298 58.3327 29.0965 58.4082 29.1803C58.5698 29.3541 58.6506 29.6145 58.6507 29.9616V34.3614H57.819V34.5533H61.1598V34.3614H60.342V30.2494C60.342 29.8932 60.483 29.5825 60.7648 29.3174C61.0466 29.0526 61.3446 28.9201 61.6588 28.92C62.2689 28.92 62.5739 29.3038 62.5738 30.0713V34.3614H61.756V34.5533H65.1799V34.3614H64.265V30.5099C64.265 29.2033 63.5673 28.5499 62.1718 28.5499C61.3214 28.5499 60.693 28.9154 60.2865 29.6464C60.0739 29.2444 59.8174 28.9612 59.5171 28.7966ZM48.6767 34.3889C48.4976 34.2889 48.3455 34.1479 48.2333 33.9775C48.1268 33.8131 48.0459 33.5893 47.9906 33.306C47.9382 33.0459 47.9034 32.7826 47.8867 32.5179C47.8728 32.2759 47.8659 31.9721 47.8659 31.6065C47.8659 31.241 47.8751 30.9303 47.8936 30.6743C47.9132 30.4095 47.9503 30.1463 48.0045 29.8863C48.0599 29.6169 48.1408 29.3999 48.2471 29.2352C48.357 29.0672 48.5069 28.9284 48.6837 28.8309C48.8686 28.7259 49.095 28.6734 49.363 28.6732C49.6771 28.6732 49.9405 28.7418 50.1532 28.8788C50.3696 29.0209 50.5347 29.2273 50.6245 29.4683C50.7254 29.7218 50.7952 29.9864 50.8325 30.2563C50.8721 30.5723 50.8906 30.8905 50.8878 31.2089C50.8878 32.3603 50.8324 33.1187 50.7216 33.4842C50.5088 34.1968 50.0605 34.5532 49.3768 34.5533C49.0997 34.5533 48.8663 34.4985 48.6767 34.3889ZM51.7681 29.3996C51.1073 28.7876 50.3102 28.4815 49.3768 28.4814C48.4433 28.4814 47.6462 28.7875 46.9856 29.3996C46.3247 30.012 45.9943 30.7476 45.9944 31.6065C45.9944 32.4746 46.3248 33.2148 46.9856 33.8269C47.6463 34.4391 48.4434 34.7452 49.3768 34.7451C50.3101 34.7451 51.1072 34.439 51.7681 33.8269C52.4288 33.2148 52.7592 32.4746 52.7593 31.6065C52.7593 30.7476 52.4289 30.012 51.7681 29.3996ZM41.6558 28.8651H42.5845V34.3614H41.6558V34.5533H45.2045V34.3614H44.2756V28.6732H41.6558V28.8651ZM43.43 24.7533C43.1997 24.7511 42.9757 24.828 42.7964 24.971C42.6171 25.114 42.4936 25.3142 42.447 25.5372C42.4005 25.7603 42.4337 25.9924 42.541 26.194C42.6484 26.3955 42.8232 26.5539 43.0356 26.642C43.248 26.7302 43.4848 26.7427 43.7055 26.6774C43.9262 26.6121 44.117 26.473 44.2455 26.2839C44.3739 26.0948 44.432 25.8675 44.4097 25.6408C44.3874 25.4141 44.2861 25.2021 44.1232 25.0411C44.0337 24.9488 43.926 24.8757 43.8068 24.8262C43.6876 24.7767 43.5593 24.7518 43.43 24.7533ZM36.402 33.9228C36.1155 33.5026 35.9723 32.7533 35.9723 31.6749C35.9723 29.6739 36.4759 28.6733 37.4832 28.6732C37.9638 28.6732 38.2965 28.8925 38.4814 29.3312C38.6661 29.7698 38.7585 30.5648 38.7587 31.7161C38.7587 32.8036 38.6709 33.5483 38.4953 33.9502C38.3197 34.3523 38.0239 34.5534 37.608 34.5533C37.0904 34.5533 36.6884 34.3431 36.402 33.9228ZM33.3661 24.8629H34.2811V34.3614H33.3661V34.5533H35.9446V33.5391H35.9723C36.2957 34.3432 36.8409 34.7452 37.608 34.7451C38.4766 34.7451 39.1975 34.4322 39.7706 33.8063C40.3435 33.1805 40.63 32.4472 40.63 31.6065C40.63 30.784 40.3574 30.0575 39.8122 29.4271C39.2668 28.7966 38.5321 28.4814 37.608 28.4814C36.8224 28.4814 36.2864 28.8651 36 29.6327H35.9723V24.6709H33.3661V24.8629ZM29.9699 33.0181C29.9699 33.4386 29.8822 33.779 29.7066 34.0393C29.5309 34.2996 29.2952 34.4298 28.9996 34.4299C28.3987 34.4299 28.0983 33.9958 28.0985 33.1278C28.0985 32.4884 28.3942 32.0315 28.9857 31.7571C29.0319 31.739 29.092 31.7116 29.166 31.6749C29.36 31.5837 29.4987 31.5174 29.5818 31.4762C29.6657 31.4346 29.7447 31.3841 29.8174 31.3254C29.8914 31.2661 29.933 31.209 29.9422 31.1541H29.9699V33.0181ZM29.1382 28.4814C28.4635 28.4814 27.8974 28.6184 27.44 28.8925C26.9826 29.1666 26.7539 29.523 26.7539 29.9616C26.7539 30.4277 27.0219 30.6607 27.5578 30.6606C28.1215 30.6606 28.4034 30.4733 28.4036 30.0987L28.3203 29.3312C28.3203 28.8925 28.5837 28.6732 29.1105 28.6732C29.3968 28.6732 29.6117 28.7578 29.7551 28.9269C29.8983 29.0959 29.9699 29.3221 29.9699 29.6052V30.5236C29.9699 30.7796 29.8983 30.9692 29.7551 31.0923C29.6117 31.2157 29.3598 31.3414 28.9996 31.4694C28.8516 31.5241 28.6113 31.5995 28.2788 31.6955C27.9461 31.7915 27.6919 31.8737 27.5163 31.9423C27.3151 32.0233 27.1204 32.1195 26.9341 32.2301C26.7214 32.3535 26.5666 32.5088 26.4696 32.696C26.3726 32.8835 26.3241 33.1096 26.3242 33.3745C26.3242 33.8131 26.5067 34.1512 26.8717 34.3889C27.2366 34.6263 27.7149 34.745 28.3064 34.7451C28.824 34.7451 29.2052 34.6743 29.4501 34.5327C29.6948 34.3912 29.8866 34.1468 30.0255 33.7994H30.0531C30.1731 34.4299 30.6676 34.7451 31.5364 34.7451C32.1555 34.7451 32.5667 34.6081 32.7701 34.334L32.6453 34.2106C32.4882 34.3843 32.3126 34.4712 32.1186 34.4711C31.8136 34.4711 31.6611 34.2791 31.6611 33.8953V30.3865C31.6611 29.1165 30.8201 28.4815 29.1382 28.4814ZM21.8745 24.8629H22.8033V34.3614H21.8745V34.5533H25.4232V34.3614H24.4945V24.6709H21.8745V24.8629ZM17.5081 24.8629H18.4368V34.3614H17.5081V34.5533H21.0568V34.3614H20.128V24.6709H17.5081V24.8629ZM12.4551 34.3889C12.2761 34.289 12.124 34.1479 12.0117 33.9775C11.9052 33.8131 11.8243 33.5893 11.7691 33.306C11.7166 33.0459 11.6819 32.7826 11.6651 32.5179C11.6512 32.2759 11.6443 31.9721 11.6443 31.6065C11.6443 31.241 11.6535 30.9303 11.672 30.6743C11.6917 30.4095 11.7287 30.1463 11.7829 29.8863C11.8383 29.6169 11.9191 29.3999 12.0254 29.2352C12.1354 29.0672 12.2853 28.9284 12.4621 28.8309C12.6468 28.7259 12.8733 28.6734 13.1414 28.6732C13.4555 28.6732 13.7189 28.7418 13.9316 28.8788C14.148 29.0208 14.313 29.2273 14.4028 29.4683C14.5038 29.7218 14.5736 29.9863 14.6107 30.2563C14.6505 30.5723 14.6691 30.8905 14.6663 31.2089C14.6663 32.3603 14.6108 33.1187 14.5 33.4842C14.2872 34.1968 13.8389 34.5532 13.1553 34.5533C12.8781 34.5533 12.6447 34.4985 12.4551 34.3889ZM15.5465 29.3996C14.8857 28.7876 14.0886 28.4815 13.1553 28.4814C12.2217 28.4814 11.4246 28.7875 10.764 29.3996C10.1032 30.012 9.77276 30.7476 9.77281 31.6065C9.77281 32.4746 10.1032 33.2148 10.764 33.8269C11.4247 34.4391 12.2218 34.7452 13.1553 34.7451C14.0886 34.7451 14.8856 34.439 15.5465 33.8269C16.2071 33.2148 16.5375 32.4746 16.5377 31.6065C16.5377 30.7476 16.2073 30.012 15.5465 29.3996ZM6.70253 24.8286C6.10652 24.6597 5.60055 24.5751 5.1846 24.575C4.3436 24.575 3.52805 24.792 2.73795 25.2261C1.94775 25.6601 1.2939 26.2769 0.776409 27.0765C0.264194 27.8577 -0.00566335 28.7701 9.0117e-05 29.7012C9.0117e-05 31.0811 0.515322 32.269 1.54579 33.2649C2.5761 34.261 3.78904 34.7589 5.1846 34.7588C5.62821 34.7588 6.15728 34.6766 6.77179 34.5121C7.38641 34.3477 7.73068 34.2655 7.80462 34.2655C8.02643 34.2655 8.17892 34.3614 8.26211 34.5533H8.48392V31.6475H8.26211C8.04031 32.5339 7.65444 33.2421 7.1045 33.772C6.55457 34.3021 5.9146 34.5671 5.1846 34.567C4.06627 34.567 3.29921 34.2015 2.88341 33.4704C2.46756 32.7395 2.25964 31.4922 2.25964 29.7286C2.25964 27.7275 2.4907 26.4026 2.95281 25.7537C3.4332 25.0958 4.18175 24.7669 5.19848 24.767C5.93773 24.767 6.54999 24.9885 7.03524 25.4316C7.52035 25.8751 7.91542 26.5947 8.22047 27.5904H8.40063V24.7943H8.17882C8.15121 24.9131 8.10735 24.9908 8.04725 25.0273C7.987 25.064 7.88761 25.0823 7.74909 25.0822C7.64735 25.0822 7.29849 24.9977 6.70253 24.8286Z"
        fill="currentColor" />
    <path
        d="M32.9234 16.56C32.3054 16.3164 32.0829 15.4757 31.8975 14.6116C32.5525 14.5626 33.2134 14.5274 33.6655 14.7052C34.1089 14.8814 34.5431 15.3535 34.9998 15.86C34.2717 16.3546 33.5349 16.8005 32.9234 16.56ZM29.3894 13.9515C29.0037 13.4667 29.2446 12.6532 29.5249 11.7812C30.1082 12.0586 30.6842 12.3502 30.979 12.7225C31.2705 13.0874 31.4084 13.6973 31.5468 14.3514C30.6628 14.4148 29.7843 14.4453 29.3894 13.9515ZM27.6559 9.95765C27.5672 9.3406 28.1989 8.74838 28.89 8.12549C29.2455 8.65143 29.5826 9.18451 29.6539 9.6646C29.7255 10.1532 29.5476 10.7702 29.3508 11.3821C28.543 10.9978 27.7489 10.5883 27.6559 9.95765ZM28.1766 5.62549C28.4154 5.03414 29.285 4.82009 30.161 4.63334C30.2076 5.27462 30.2328 5.9159 30.0484 6.37351C29.8675 6.82424 29.4137 7.26505 28.9429 7.69345C28.4164 6.92689 27.9422 6.20238 28.1766 5.62549ZM30.8068 2.14501C31.3073 1.75691 32.1545 1.98849 32.999 2.25671C32.7093 2.85886 32.4308 3.41984 32.0626 3.70923C31.6869 4.00184 31.057 4.15135 30.4251 4.28525C30.3583 3.37486 30.3179 2.52639 30.8068 2.14501ZM34.86 0.427184C35.5109 0.334321 36.1226 0.938517 36.7129 1.58768C36.1489 1.97491 35.6153 2.33366 35.1428 2.40111C34.6606 2.47149 34.0268 2.28299 33.401 2.08441C33.7855 1.28661 34.2009 0.520048 34.86 0.427184ZM39.224 0.938514C39.842 1.18294 40.0636 2.02382 40.2499 2.88821C39.5948 2.93595 38.9334 2.97216 38.4809 2.7933C38.0375 2.61633 37.603 2.14603 37.1466 1.63864C37.8742 1.14483 38.6125 0.69818 39.224 0.938514ZM42.7571 3.54803C42.9009 3.72894 42.9572 3.95482 42.9572 4.2137C42.9572 4.64808 42.7976 5.17095 42.621 5.71747C42.0402 5.43991 41.4638 5.14847 41.1662 4.77599C40.8768 4.41038 40.738 3.80122 40.5989 3.14811C41.4839 3.08459 42.3619 3.05335 42.7571 3.54803ZM44.4905 7.53984C44.5825 8.15776 43.9485 8.7494 43.256 9.37199C42.8996 8.84796 42.5637 8.31428 42.4937 7.83405C42.4217 7.34827 42.5988 6.72933 42.7955 6.11638C43.6043 6.50053 44.397 6.91024 44.4905 7.53984ZM43.9707 11.8732C43.7301 12.4636 42.8633 12.6786 41.9852 12.8653C41.9397 12.2232 41.9136 11.5816 42.0991 11.125C42.28 10.6741 42.7338 10.2345 43.2046 9.80609C43.7301 10.5725 44.2048 11.2941 43.9707 11.8732ZM41.3396 15.3535C40.8393 15.7425 39.9928 15.509 39.1475 15.2433C39.4365 14.6399 39.7155 14.0785 40.0847 13.7902C40.4615 13.4971 41.0905 13.3485 41.7213 13.2124C41.7881 14.1245 41.8305 14.9721 41.3396 15.3535ZM31.8377 14.3298C31.6897 13.6288 31.544 12.9702 31.2058 12.5457C30.8637 12.1164 30.2377 11.8044 29.6142 11.5074C29.8248 10.8512 30.0212 10.1853 29.9391 9.62416C29.858 9.07194 29.4897 8.4949 29.105 7.93188C29.6123 7.47355 30.1073 6.99726 30.3159 6.47921C30.4434 6.16237 30.483 5.78405 30.483 5.38413C30.483 5.11912 30.4657 4.84637 30.4455 4.57347C31.1227 4.42979 31.8055 4.27064 32.2406 3.93131C32.6691 3.59782 32.9659 2.99071 33.2763 2.34461C33.9449 2.55661 34.628 2.76395 35.1852 2.68277C35.732 2.60363 36.3029 2.21641 36.9073 1.8029C37.3967 2.34461 37.8604 2.85389 38.3736 3.05816C38.8962 3.26448 39.6087 3.22155 40.3097 3.16972C40.4577 3.87057 40.6034 4.52879 40.9406 4.95296C41.2827 5.38325 41.9098 5.69411 42.5331 5.99124C42.3215 6.64742 42.1261 7.31308 42.2082 7.87421C42.2894 8.42759 42.6577 9.00346 43.0414 9.5675C42.535 10.0261 42.0402 10.5002 41.8305 11.0193C41.62 11.5445 41.651 12.2386 41.701 12.9249C41.0236 13.0696 40.3407 13.2282 39.9067 13.5673C39.4783 13.9017 39.1815 14.5078 38.8711 15.1551C38.2017 14.9419 37.5178 14.7356 36.9632 14.8157C36.4144 14.895 35.8433 15.2833 35.2386 15.6975C34.7498 15.1551 34.2858 14.6446 33.7727 14.4414C33.2511 14.2352 32.5372 14.2781 31.8377 14.3298ZM37.286 17.0723C36.6364 17.1642 36.0247 16.56 35.4334 15.9107C35.998 15.5248 36.5311 15.1659 37.0038 15.0972C37.4858 15.0279 38.1205 15.2155 38.7454 15.4139C38.3615 16.212 37.9456 16.9795 37.286 17.0723ZM37.3285 17.3549C38.1438 17.2384 38.6006 16.3801 39.0228 15.5021C39.9524 15.7974 40.8926 16.0634 41.5175 15.5773C42.133 15.0984 42.0778 14.1159 42.0055 13.1518C42.9707 12.9474 43.9397 12.7157 44.2393 11.9796C44.5339 11.2522 43.9736 10.419 43.4202 9.6116C44.1503 8.95353 44.8923 8.27603 44.7758 7.49881C44.6596 6.71371 43.7725 6.264 42.8837 5.84158C43.1802 4.92157 43.4665 3.97819 42.9825 3.37019C42.4906 2.75403 41.5125 2.7952 40.5405 2.86558C40.337 1.91621 40.0953 0.97575 39.3304 0.674675C38.5731 0.376519 37.7541 0.879821 36.9531 1.42444C36.3029 0.709862 35.6257 0.0294486 34.8185 0.144652C34.0036 0.261022 33.5457 1.11753 33.1235 1.99535C32.1942 1.70113 31.2532 1.43525 30.6297 1.92219C30.0142 2.40024 30.0696 3.38289 30.1408 4.34686C29.1758 4.55215 28.2076 4.78197 27.909 5.52006C27.8539 5.65552 27.8261 5.80029 27.8271 5.94627C27.8271 6.56317 28.2795 7.23293 28.7274 7.88793C28.0477 8.49899 27.3594 9.13151 27.3594 9.8404L27.3712 9.99867C27.4868 10.7857 28.3739 11.2345 29.2629 11.6568C28.9671 12.5769 28.6793 13.5203 29.1635 14.1274C29.6558 14.7445 30.6337 14.7043 31.6068 14.6319C31.8104 15.5835 32.0513 16.5228 32.8171 16.8249C33.5739 17.123 34.3932 16.6196 35.1942 16.0751C35.8444 16.7898 36.5216 17.4683 37.3285 17.3549Z"
        fill="currentColor" />
    <path
        d="M37.1479 17.4992C36.41 17.4992 35.7893 16.9189 35.1733 16.2486C34.3485 16.8031 33.5433 17.2525 32.7678 16.9471C31.9888 16.6399 31.7156 15.7514 31.5008 14.7716C30.4577 14.8448 29.5592 14.8359 29.0588 14.209C28.5416 13.5605 28.8223 12.5965 29.101 11.7258C28.3032 11.3456 27.364 10.8662 27.2394 10.0176L27.2266 9.85008C27.2262 9.09329 27.9134 8.44316 28.5526 7.86724C28.137 7.25809 27.6939 6.57873 27.6939 5.94627C27.6929 5.78325 27.7241 5.62161 27.7857 5.47038C28.1067 4.67687 29.1337 4.42784 29.9995 4.24226C29.9335 3.33218 29.8877 2.33106 30.5475 1.81867C31.1789 1.32545 32.0551 1.52379 33.0534 1.83521C33.4928 0.933045 33.9678 0.133118 34.7994 0.0144127C35.6249 -0.10358 36.3021 0.52025 36.9739 1.25088C37.7986 0.696205 38.6032 0.246905 39.3796 0.552403C40.1581 0.858829 40.4313 1.74673 40.6465 2.72618C41.6899 2.65524 42.5892 2.66508 43.087 3.28862C43.6057 3.94032 43.3247 4.90302 43.0455 5.77253C43.843 6.15288 44.7819 6.63227 44.9074 7.47975C45.0304 8.29978 44.2874 9.00624 43.5949 9.63207C44.12 10.3999 44.6749 11.2579 44.3629 12.0285C44.0391 12.8236 43.0125 13.0717 42.1468 13.2565C42.2138 14.166 42.2607 15.1665 41.5998 15.6808C40.9661 16.1735 40.0903 15.9744 39.0928 15.6624C38.6528 16.5656 38.1775 17.3665 37.3475 17.4851L37.3472 17.4852C37.2812 17.4945 37.2146 17.4992 37.1479 17.4992ZM35.215 15.9012L35.2931 15.9871C35.9394 16.6976 36.5783 17.3265 37.3094 17.2246C38.0418 17.1199 38.4641 16.357 38.9024 15.4456L38.9525 15.3416L39.0634 15.3768C40.0333 15.6848 40.8814 15.9045 41.4351 15.4739C41.9701 15.0577 41.9519 14.2172 41.8726 13.1616L41.8641 13.0471L41.9776 13.0231C42.9914 12.8083 43.8522 12.5778 44.1158 11.9305C44.3881 11.2582 43.8153 10.4227 43.31 9.68546L43.2452 9.59114L43.3304 9.51436C44.029 8.88461 44.7512 8.23341 44.6441 7.51811C44.5418 6.82783 43.7602 6.4042 42.8258 5.96018L42.7216 5.91063L42.7566 5.80155C43.0259 4.96683 43.3309 4.02075 42.8779 3.4516C42.4428 2.9067 41.5664 2.92331 40.5502 2.99682L40.4344 3.00523L40.4103 2.89287C40.1987 1.90608 39.9679 1.0673 39.2811 0.796948C38.5964 0.527739 37.8251 0.991154 37.0285 1.53285L36.9323 1.5983L36.8542 1.51246C36.2068 0.801011 35.5663 0.171479 34.8374 0.274927C34.1045 0.379588 33.6653 1.17516 33.2437 2.05188L33.1937 2.15582L33.0829 2.12067C32.1125 1.81347 31.2642 1.59431 30.7122 2.0255C30.1359 2.47308 30.209 3.46344 30.2735 4.3373L30.2819 4.45144L30.1687 4.47554C29.1547 4.69127 28.2941 4.92248 28.0326 5.56898C27.9838 5.68889 27.9592 5.81705 27.9601 5.94628C27.9601 6.53096 28.4263 7.21268 28.8376 7.8142L28.9022 7.90859L28.8169 7.9853C28.1961 8.5434 27.4924 9.17599 27.4924 9.84039L27.5039 9.98897C27.6043 10.6706 28.3861 11.0943 29.3205 11.5381L29.4247 11.5876L29.3897 11.6966C29.121 12.5325 28.8165 13.4799 29.268 14.0459C29.7054 14.5942 30.5814 14.5763 31.5967 14.5006L31.7129 14.492L31.7369 14.6047C31.9483 15.5921 32.1791 16.4315 32.8663 16.7026C33.5506 16.9721 34.3221 16.5082 35.1187 15.9667L35.215 15.9012ZM37.1544 17.2132C36.4987 17.2132 35.897 16.6164 35.3344 15.9987L35.2331 15.8875L35.3576 15.8024C35.9048 15.4284 36.4707 15.0416 36.9844 14.967C37.4851 14.8952 38.1227 15.0779 38.786 15.2886L38.931 15.3346L38.8656 15.4705C38.4543 16.3253 38.0256 17.1012 37.3047 17.2026C37.2549 17.2097 37.2047 17.2132 37.1544 17.2132ZM35.6341 15.9336C36.1614 16.5037 36.7193 17.0196 37.267 16.942H37.2672C37.8231 16.8638 38.2005 16.2257 38.5592 15.4934C37.9799 15.3129 37.4332 15.1685 37.0229 15.2275C36.607 15.2879 36.1165 15.6053 35.6341 15.9336ZM33.2858 16.7581C33.1449 16.759 33.0052 16.7333 32.8742 16.6823L32.8741 16.6823C32.1996 16.4165 31.9656 15.5641 31.7672 14.6389L31.7356 14.4918L31.8874 14.4804C32.5809 14.4286 33.2424 14.3972 33.7146 14.5829C34.2008 14.7761 34.6575 15.2826 35.0991 15.7724L35.1997 15.884L35.0751 15.9685C34.4777 16.3743 33.8553 16.7581 33.2858 16.7581ZM32.9725 16.4376C33.4895 16.641 34.1523 16.2678 34.7994 15.8358C34.4234 15.4207 34.0081 14.9832 33.6157 14.8273C33.229 14.6751 32.6641 14.6896 32.0598 14.7318C32.236 15.5257 32.4524 16.2326 32.9725 16.4376ZM35.2175 15.872L35.1392 15.785C34.684 15.28 34.2133 14.7577 33.7232 14.5636C33.2092 14.3605 32.4541 14.4162 31.8476 14.4611L31.7312 14.4697L31.7074 14.3567C31.5706 13.7088 31.4292 13.0389 31.1012 12.6271C30.786 12.2317 30.2151 11.9398 29.5564 11.626L29.4523 11.5764L29.4872 11.4676C29.6997 10.8055 29.884 10.1677 29.8072 9.64297C29.7299 9.11639 29.3634 8.54532 28.9946 8.00562L28.9303 7.91144L29.0151 7.83473C29.5015 7.3952 29.9931 6.92472 30.1922 6.43051C30.2997 6.16322 30.3498 5.83071 30.3498 5.38412C30.3498 5.11968 30.3319 4.84285 30.3126 4.58312L30.3041 4.46884L30.4175 4.44481C31.1051 4.29887 31.7555 4.14188 32.1581 3.8279C32.5703 3.50714 32.8681 2.88745 33.156 2.28815L33.206 2.18413L33.3169 2.21927C33.8971 2.40322 34.6188 2.63207 35.1657 2.55251C35.6881 2.47693 36.2694 2.07925 36.8315 1.69469L36.9281 1.62853L37.0065 1.71522C37.4622 2.21956 37.9334 2.74108 38.4233 2.936C38.9376 3.13919 39.693 3.08336 40.2997 3.03845L40.4161 3.02982L40.44 3.14283C40.5767 3.7904 40.718 4.45999 41.0453 4.87158C41.3581 5.2652 41.9303 5.55786 42.5909 5.8727L42.695 5.92232L42.6599 6.03126C42.4471 6.69088 42.2625 7.32668 42.34 7.85533C42.4169 8.37942 42.7679 8.92953 43.1518 9.49404L43.2156 9.58801L43.1313 9.66451C42.6241 10.1239 42.1524 10.5769 41.9539 11.0682C41.7549 11.5649 41.7835 12.2255 41.8337 12.9155L41.8419 13.0294L41.729 13.0536C41.0135 13.2064 40.3888 13.3584 39.9892 13.6706C39.5754 13.9935 39.2785 14.6126 38.9912 15.2114L38.9412 15.3157L38.8302 15.2803C38.1196 15.054 37.49 14.8723 36.9824 14.946C36.459 15.0216 35.903 15.4024 35.3143 15.8057L35.2175 15.872ZM32.7325 14.156C33.142 14.156 33.5098 14.1958 33.822 14.3192C34.3404 14.5244 34.8082 15.0232 35.2595 15.523C35.8173 15.1419 36.3908 14.7654 36.9439 14.6855C37.4795 14.6077 38.1029 14.7748 38.8006 14.9946C39.0858 14.4017 39.3872 13.805 39.8242 13.464C40.246 13.1343 40.8585 12.9729 41.56 12.8205C41.5132 12.1401 41.4982 11.4907 41.7066 10.9708C41.9143 10.4566 42.3688 10.002 42.8672 9.54694C42.4908 8.98884 42.1568 8.44123 42.0764 7.89312C41.9953 7.3398 42.1641 6.71141 42.3714 6.06013C41.7244 5.749 41.1664 5.45013 40.8359 5.03427C40.4905 4.59973 40.3393 3.95081 40.2032 3.30937C39.472 3.36113 38.8264 3.37867 38.3243 3.1804C37.8062 2.97428 37.3381 2.47615 36.8863 1.97723C36.3292 2.35751 35.7564 2.73309 35.2044 2.81302C34.6337 2.89614 33.9322 2.68989 33.3465 2.50509C33.0605 3.09848 32.7585 3.69571 32.3229 4.03472C31.8991 4.36517 31.2639 4.53157 30.5864 4.67801C30.6026 4.90886 30.616 5.15005 30.616 5.38411C30.616 5.86514 30.56 6.22853 30.4396 6.52782C30.2317 7.04371 29.7602 7.51397 29.2793 7.95236C29.6429 8.48964 29.9901 9.05571 30.0707 9.60525C30.1512 10.1548 29.9827 10.7848 29.7757 11.4385C30.4209 11.7485 30.9776 12.0467 31.3103 12.4642C31.6568 12.8991 31.8079 13.5484 31.9442 14.1901C32.2201 14.1706 32.484 14.156 32.7325 14.156ZM40.639 15.69C40.1855 15.69 39.6551 15.541 39.107 15.3686L38.962 15.323L39.0272 15.1869C39.3474 14.5183 39.6226 13.9833 40.0022 13.6868C40.394 13.3821 41.0255 13.2277 41.6929 13.0838L41.843 13.0514L41.8541 13.2029C41.9163 14.0537 41.9867 15.018 41.4218 15.457L41.4219 15.4569C41.2062 15.6245 40.9394 15.69 40.639 15.69ZM39.3335 15.1631C40.1186 15.4044 40.8442 15.571 41.2572 15.25L41.2574 15.2499C41.6548 14.941 41.6587 14.2512 41.5993 13.3738C41.0203 13.5019 40.4867 13.645 40.167 13.8936C39.8571 14.1356 39.6109 14.5903 39.3335 15.1631ZM30.7769 14.517C30.1395 14.517 29.5925 14.4178 29.285 14.0331L29.2848 14.0329C28.8407 13.4749 29.1367 12.5539 29.3979 11.7413L29.4443 11.5969L29.5825 11.6625C30.1965 11.9546 30.7732 12.2491 31.0837 12.6413C31.3826 13.0155 31.5237 13.5997 31.677 14.3245L31.7082 14.4718L31.5564 14.4827C31.2887 14.5019 31.0259 14.517 30.7769 14.517ZM29.4939 13.8699C29.8207 14.2786 30.5649 14.284 31.3848 14.2306C31.2505 13.6089 31.1186 13.1097 30.8744 12.804C30.6208 12.4837 30.1367 12.2224 29.6055 11.966C29.3406 12.8052 29.1814 13.4769 29.4939 13.8699ZM41.8629 13.0259L41.8523 12.8745C41.8067 12.2301 41.7787 11.5604 41.9754 11.0759C42.1681 10.5958 42.6437 10.1375 43.1144 9.7092L43.2281 9.60583L43.3147 9.73223C43.8056 10.4481 44.362 11.2596 44.0942 11.922L44.094 11.9223C43.8346 12.5593 42.9982 12.7845 42.0131 12.994L41.8629 13.0259ZM43.1812 10.0069C42.7723 10.3839 42.3804 10.7807 42.2227 11.1735C42.0612 11.5711 42.0713 12.1389 42.1075 12.7042C42.9236 12.5251 43.6489 12.3107 43.8472 11.8239C44.0485 11.3251 43.6102 10.6357 43.1812 10.0069ZM29.4311 11.5664L29.2929 11.5008C28.3844 11.0685 27.6243 10.6555 27.5241 9.9767L27.524 9.9762C27.4225 9.27003 28.1544 8.61027 28.8002 8.02822L28.9146 7.92513L29.0006 8.05232C29.3562 8.57847 29.7098 9.13486 29.7856 9.64547C29.8617 10.1647 29.6751 10.8078 29.4775 11.4221L29.4311 11.5664ZM27.7875 9.93863C27.8641 10.4571 28.5186 10.8338 29.27 11.1972C29.4397 10.6576 29.5845 10.109 29.5221 9.68347C29.4601 9.26582 29.1729 8.78851 28.865 8.32623C28.2998 8.83813 27.7115 9.40663 27.7875 9.93863ZM43.2314 9.57189L43.1454 9.44541C42.7902 8.92311 42.4372 8.36986 42.3618 7.85276C42.2851 7.33481 42.4712 6.6913 42.6685 6.0766L42.7149 5.93208L42.8531 5.99775C43.7277 6.41311 44.5213 6.84223 44.6222 7.52074V7.52067C44.7274 8.22713 43.9932 8.88711 43.3454 9.46937L43.2314 9.57189ZM42.8762 6.30125C42.7069 6.84116 42.5624 7.39013 42.6252 7.8149C42.6867 8.23675 42.9838 8.72791 43.2807 9.17164C43.8477 8.65953 44.438 8.09082 44.3588 7.55903V7.55896C44.2817 7.04 43.6272 6.66385 42.8762 6.30125ZM28.9194 7.89362L28.8327 7.76735C28.3409 7.05127 27.7835 6.23965 28.053 5.5764C28.3099 4.94066 29.147 4.71487 30.1329 4.50462L30.2828 4.47268L30.2938 4.6239C30.3403 5.26548 30.3692 5.9328 30.172 6.42224C29.9785 6.90426 29.5032 7.3624 29.033 7.79031L28.9194 7.89362ZM30.0388 4.79451C29.2218 4.9741 28.4961 5.18898 28.3002 5.67428L28.3001 5.6745C28.1101 6.14212 28.4622 6.75047 28.9663 7.49258C29.3747 7.11586 29.7663 6.71918 29.9246 6.32492C30.0864 5.92324 30.0758 5.35716 30.0388 4.79451ZM42.7011 5.902L42.5629 5.83598C41.9496 5.54282 41.3731 5.24737 41.0617 4.8576C40.7642 4.48181 40.6227 3.89862 40.4686 3.17526L40.4371 3.02775L40.5891 3.01685C41.5432 2.94848 42.434 2.93122 42.8615 3.46643L42.8618 3.46665C43.0155 3.66014 43.0902 3.90446 43.0902 4.21367C43.0902 4.66076 42.9352 5.17736 42.7477 5.75756L42.7011 5.902ZM40.7609 3.26887C40.896 3.88964 41.0281 4.38813 41.271 4.69484C41.5251 5.01288 42.0093 5.27496 42.5406 5.53248C42.6995 5.0327 42.824 4.58711 42.824 4.21367C42.824 3.96578 42.7679 3.77464 42.6524 3.62934C42.3256 3.22075 41.581 3.21533 40.7609 3.26887ZM30.3033 4.44566L30.2922 4.29473C30.2299 3.44518 30.1594 2.48235 30.7243 2.04168L30.7246 2.04139C31.2697 1.61862 32.1308 1.84269 33.0397 2.13137L33.1845 2.17742L33.1191 2.31324C32.8531 2.8662 32.5516 3.49295 32.1454 3.81221C31.7495 4.12063 31.1189 4.27284 30.4529 4.41393L30.3033 4.44566ZM30.889 2.24858C30.4912 2.55913 30.4875 3.24827 30.547 4.12441C31.1245 3.99864 31.6573 3.85727 31.9802 3.60581C32.3071 3.34879 32.5755 2.82699 32.8131 2.33641C32.0299 2.09329 31.3057 1.92518 30.8889 2.24858H30.889ZM39.41 3.05905C39.0371 3.05905 38.7056 3.02383 38.4314 2.91547C37.9769 2.73409 37.5534 2.28907 37.047 1.72613L36.9468 1.61462L37.0712 1.53014C37.8166 1.02409 38.6001 0.551904 39.2732 0.816193L39.2735 0.816337C39.9456 1.08219 40.1804 1.93509 40.38 2.86078L40.4117 3.00843L40.2596 3.01948C39.9596 3.04137 39.6745 3.05905 39.41 3.05905ZM37.3469 1.66296C37.7853 2.14634 38.1583 2.52263 38.5306 2.67121C38.9134 2.82243 39.4798 2.80881 40.0873 2.76774C39.91 1.97316 39.693 1.26578 39.1745 1.06073C38.6581 0.857901 37.9943 1.23085 37.3469 1.66296ZM34.9185 2.54815C34.4686 2.54815 33.9422 2.39444 33.3603 2.20972L33.2153 2.16366L33.2807 2.02777C33.6925 1.17352 34.1217 0.398407 34.8409 0.296883C35.5582 0.195289 36.2075 0.835087 36.8118 1.4997L36.9127 1.61063L36.7887 1.69583C36.2433 2.07027 35.6793 2.45747 35.1618 2.53133C35.0812 2.54283 34.9999 2.54846 34.9185 2.54815ZM33.5873 2.00489C34.1676 2.18584 34.7154 2.33071 35.1233 2.27089C35.5413 2.21122 36.0486 1.88169 36.5124 1.56493C35.9859 0.995 35.4296 0.479182 34.879 0.557392L34.8787 0.557463C34.324 0.635675 33.9463 1.27319 33.5873 2.00489Z"
        fill="currentColor" />
</svg>